<?xml version="1.0" encoding="utf-8"?>
<!-- Generator: Adobe Illustrator 17.1.0, SVG Export Plug-In . SVG Version: 6.00 Build 0)  -->
<!DOCTYPE svg PUBLIC "-//W3C//DTD SVG 1.1//EN" "http://www.w3.org/Graphics/SVG/1.1/DTD/svg11.dtd">
<svg version="1.1" id="Layer_1" xmlns="http://www.w3.org/2000/svg" xmlns:xlink="http://www.w3.org/1999/xlink" x="0px" y="0px"
	 viewBox="0 0 1417.3 1417.3" enable-background="new 0 0 1417.3 1417.3" xml:space="preserve">
<polygon fill="#231F20" points="1000.2,140.4 1000.2,244.5 1127.7,244.5 1127.7,1313.2 287,1313.2 287,244.5 414.6,244.5 
	414.6,140.4 182.9,140.4 182.9,1417.3 1231.8,1417.3 1231.8,140.4 "/>
<rect x="495.9" y="0.5" fill="#231F20" width="422.8" height="246.3"/>
<polygon fill="#FEC704" points="612.9,405.7 506.4,512.2 461.5,467.3 426.2,502.6 471.1,547.5 506.4,582.7 541.6,547.5 648.1,440.9 
	"/>
<polygon fill="#231F20" points="590.7,514.5 550.9,554.3 550.9,590.8 514.3,590.8 506.4,598.8 498.4,590.8 430.4,590.8 430.4,522.8 
	410.1,502.6 430.4,482.3 442.3,470.3 461.5,451.2 480.6,470.3 532.1,470.3 571.9,430.6 390.6,430.6 390.6,630.6 590.7,630.6 "/>
<path fill="#231F20" d="M550.9,845.3H430.4V724.8h120.5V845.3z M590.7,685H390.6v200.1h200.1V685z"/>
<path fill="#231F20" d="M550.9,1112.3H430.4V991.8h120.5V1112.3z M590.7,951.9H390.6V1152h200.1V951.9z"/>
<rect x="648.6" y="494.2" fill="#FEC704" width="375.5" height="88.5"/>
<rect x="648.6" y="740.8" fill="#FEC704" width="375.5" height="88.5"/>
<rect x="648.7" y="1007.7" fill="#FEC704" width="375.5" height="88.5"/>
</svg>
