<?xml version="1.0" encoding="utf-8"?>
<!-- Generator: Adobe Illustrator 17.1.0, SVG Export Plug-In . SVG Version: 6.00 Build 0)  -->
<!DOCTYPE svg PUBLIC "-//W3C//DTD SVG 1.1//EN" "http://www.w3.org/Graphics/SVG/1.1/DTD/svg11.dtd">
<svg version="1.1" id="Layer_1" xmlns="http://www.w3.org/2000/svg" xmlns:xlink="http://www.w3.org/1999/xlink" x="0px" y="0px"
	 viewBox="0 0 1417.3 1417.3" enable-background="new 0 0 1417.3 1417.3" xml:space="preserve">
<g>
	<defs>
		<rect id="SVGID_1_" x="9.9" y="180.5" width="1395.1" height="1056.7"/>
	</defs>
	<clipPath id="SVGID_2_">
		<use xlink:href="#SVGID_1_"  overflow="visible"/>
	</clipPath>
	<path clip-path="url(#SVGID_2_)" fill="#FEC704" d="M719.3,458.1L719.3,458.1c76.6,0,138.8-62.1,138.8-138.8S796,180.5,719.3,180.5
		s-138.8,62.1-138.8,138.8S642.7,458.1,719.3,458.1"/>
	<path clip-path="url(#SVGID_2_)" fill="#FEC704" d="M940,789h5.4h6.4h0.4l-6.1-23.7l-0.2,0.6l-57.4-223.3
		c-2.2-6.6-7-11.9-13.2-14.8l-89.6-42.1L780,483v0H658.7v0l-5.7,2.7l-89.6,42.1c-6.3,2.9-11.1,8.3-13.3,14.8L486.8,789h96.9v448.2
		h125.5V960.3h20.2v276.9h125.5V789H940z"/>
	<path clip-path="url(#SVGID_2_)" fill="#FEC704" d="M1405,789l-63.4-246.4c-2.2-6.6-7-11.9-13.2-14.8l-89.6-42.1l-5.7-2.7h-121.3
		l-5.7,2.7l-15,7.1l17.4,8.2c13.5,6.3,24,18.1,28.8,32.1l0.3,1.1l73.1,284.5l-38.2,0h-67.3v418.5h57.2V960.3h20.2v276.9h125.5V789
		H1405z"/>
	<path clip-path="url(#SVGID_2_)" fill="#231F20" d="M1172.5,789L1172.5,789l-63.4-246.4c-2.2-6.6-7-11.9-13.2-14.8l-89.6-42.1
		l-5.7-2.7H879.3l-5.7,2.7l-9.1,4.3l23.3,11c13.4,6.3,23.9,18.1,28.7,32.1l0.3,1.1l73.6,284.7l-38.7-0.1h-67.3v418.5h45.3V960.3
		h20.2v276.9h125.5V789H1172.5z"/>
	<path clip-path="url(#SVGID_2_)" fill="#231F20" d="M521.7,534.1l0.4-1.1c4.8-14.1,15.3-25.8,28.7-32.1l2.1-1l-30.3-14.2l-5.7-2.7
		H395.6l-5.7,2.7l-89.6,42.1c-6.2,2.9-11,8.3-13.2,14.8L223.8,789h96.9v448.2h125.5V960.3h20.2v276.9H554V818.7H444.2L521.7,534.1z"
		/>
	<path clip-path="url(#SVGID_2_)" fill="#231F20" d="M456.3,458.1L456.3,458.1c47.4,0,89.1-23.7,114.2-59.9
		c-12.6-23.5-19.7-50.4-19.7-78.9c0-28.5,7.1-55.3,19.7-78.9c-25-36.2-66.8-59.9-114.2-59.9c-76.6,0-138.8,62.1-138.8,138.8
		S379.7,458.1,456.3,458.1"/>
	<path clip-path="url(#SVGID_2_)" fill="#231F20" d="M850.3,425.2c24.2,20.5,55.5,32.9,89.7,32.9c76.6,0,138.8-62.1,138.8-138.8
		S1016.6,180.5,940,180.5c-34.2,0-65.5,12.4-89.7,32.9c23.4,29,37.5,65.8,37.5,105.9C887.8,359.4,873.7,396.2,850.3,425.2"/>
	<path clip-path="url(#SVGID_2_)" fill="#FEC704" d="M258.7,534.1l0.4-1.1c4.8-14.1,15.3-25.8,28.7-32.1l26.7-12.6l-5.7-2.7
		l-5.7-2.7H181.8l-5.7,2.7l-89.6,42.1c-6.2,2.9-11,8.3-13.2,14.8L9.9,789h96.9v448.2h125.5V960.3h20.2v276.9H291V818.7H181.2
		L258.7,534.1z"/>
	<path clip-path="url(#SVGID_2_)" fill="#FEC704" d="M242.4,458.1L242.4,458.1c32.3,0,62.1-11.1,85.7-29.6
		c-25.1-29.4-40.3-67.6-40.3-109.2c0-41.6,15.2-79.7,40.3-109.2c-23.6-18.5-53.3-29.6-85.7-29.6c-76.6,0-138.8,62.1-138.8,138.8
		S165.8,458.1,242.4,458.1"/>
	<path clip-path="url(#SVGID_2_)" fill="#FEC704" d="M1075.8,418.8c25,24.3,59.1,39.2,96.7,39.2c76.6,0,138.8-62.1,138.8-138.8
		s-62.1-138.8-138.8-138.8c-37.6,0-71.7,14.9-96.7,39.2c20.5,27.9,32.7,62.3,32.7,99.5C1108.4,356.5,1096.3,390.9,1075.8,418.8"/>
</g>
</svg>
