<?xml version="1.0" encoding="utf-8"?>
<!-- Generator: Adobe Illustrator 17.1.0, SVG Export Plug-In . SVG Version: 6.00 Build 0)  -->
<!DOCTYPE svg PUBLIC "-//W3C//DTD SVG 1.1//EN" "http://www.w3.org/Graphics/SVG/1.1/DTD/svg11.dtd">
<svg version="1.1" id="Layer_1" xmlns="http://www.w3.org/2000/svg" xmlns:xlink="http://www.w3.org/1999/xlink" x="0px" y="0px"
	 viewBox="0 0 1417.3 1417.3" enable-background="new 0 0 1417.3 1417.3" xml:space="preserve">
<polygon fill="#231F20" points="354.9,155.6 7.4,503.2 222.8,718.6 570.3,371.1 "/>
<polygon fill="#231F20" points="1069.8,155.6 854.4,371.1 1201.9,718.6 1417.3,503.2 "/>
<g>
	<defs>
		<rect id="SVGID_1_" x="7.4" y="155.6" width="1409.9" height="1116.4"/>
	</defs>
	<clipPath id="SVGID_2_">
		<use xlink:href="#SVGID_1_"  overflow="visible"/>
	</clipPath>
	<path clip-path="url(#SVGID_2_)" fill="#FEC704" d="M1079.3,777.4L898.2,598.6L821.7,544l-0.1-0.1c0-2-0.1-4-0.2-6.1l18.9-10.9
		L810,496.6l-32,18.6l1.3,13.3c20.6,69.9-59.7,137.5-97.9,174.6c-4.4,4.2-28.3,16-30.3,15.6c-2-0.5-6.8-2.2-8.8-8l-52.2-158.4
		c-1-2.9,0.2-6.1,2.8-7.8l0,0l138.3-135l31.6-18.6l59.9,30.1l300.1,312.4L1079.3,777.4z M800.7,1080.9l-0.2,0.4l-0.2,0.4
		l-55.7,136.3l8-19.7l-30.7,23.7c-4,3.1-9.1,4.5-14.1,4l2.9,2.2l-63.6-49.1c-8.3-6.4-18.1-10.5-28.4-12.1l-71.4-10.6l-50.2-66.9
		c-4.9-6.6-11-12-18.1-16.1l-78.4-45.8l-9.5-58.1c-2.4-14.8-10.2-28.2-21.9-37.6L333,902.4l2.6-54.7l136-78.8
		c4.1-2.4,8-5.3,11.5-8.6c12.5-11.8,24.3-18.6,32.5-18.6c5.6,0,10.2,3.5,13.1,6.4c6.8,6.8,13.3,18.7,18.4,33.5
		c8.2,23.5,29.6,39.7,54.7,41c16.6,0.9,29,5.7,38,14.7c4.3,4.3,7.7,9.4,10.2,15.4c8,19,24.9,32.5,45.1,36.1
		c5.1,0.9,10.1,3.8,14.9,8.7c11.4,11.4,22.1,33.3,29.2,60.2c5.2,19.5,19.7,35.1,38.8,41.8c8.1,2.8,14.6,6.7,19.3,11.4
		C820.6,1034.2,800.9,1080.5,800.7,1080.9 M836.8,383.5l-70.8-38l-63.6,34.1L667,414.2l-32.4-25.1l-52.9-6.8l-0.2-0.2l-0.2,0.1
		l-1.1-0.1l-6.5,7.8L240.5,730.9L254,744l65.5,65.1l-15,8.6c-5.8,3.4-9.5,9.4-9.8,16.1l-3.7,77.6c-0.3,6.2,2.4,12.3,7.3,16.2
		l45,36.4c3.7,3.1,6.2,7.3,7,12.1l11.2,68.2c1,5.8,4.4,10.8,9.5,13.8l87.3,50.9c2.3,1.3,4.3,3.1,5.8,5.2l55.5,74.2
		c3.1,4.1,7.7,6.9,12.9,7.7l80.2,11.9c3.3,0.5,6.5,1.8,9.2,3.9l72.4,56c3.5,2.7,7.8,4.1,12,4.1c1.9,0,3.8-0.3,5.7-0.9l54.5-16.4
		c5.7-1.7,10.3-5.9,12.6-11.4l7.7-19l16.1-12.4c2.7-2.1,5.8-3.4,9.2-3.9l80.2-11.9c5.1-0.8,9.8-3.5,12.9-7.7l55.5-74.2
		c1.6-2.1,3.6-3.8,5.8-5.2l87.3-50.9c5.1-3,8.5-8,9.5-13.8l11.2-68.2c0.8-4.8,3.3-9.1,7-12.1l45-36.4c4.9-3.9,7.6-10,7.3-16.2
		l-3.7-77.6c-0.3-6.7-4-12.7-9.8-16.1l-11.4-11.2l73.7-74.3l-2-2l2-1.2L836.8,383.5z"/>
	<path clip-path="url(#SVGID_2_)" fill="#FEC704" d="M645.7,1243.4c2.3,5.5,6.8,9.7,12.5,11.4l31.2,9.4l-59.4-45.9L645.7,1243.4z"/>
	<path clip-path="url(#SVGID_2_)" fill="#FEC704" d="M712.7,1271.2c6.1,1.8,12.7,0.6,17.7-3.3l4.9-3.7l-22.9,6.9L712.7,1271.2z"/>
</g>
</svg>
