<?xml version="1.0" encoding="utf-8"?>
<!-- Generator: Adobe Illustrator 17.1.0, SVG Export Plug-In . SVG Version: 6.00 Build 0)  -->
<!DOCTYPE svg PUBLIC "-//W3C//DTD SVG 1.1//EN" "http://www.w3.org/Graphics/SVG/1.1/DTD/svg11.dtd">
<svg version="1.1" id="Layer_1" xmlns="http://www.w3.org/2000/svg" xmlns:xlink="http://www.w3.org/1999/xlink" x="0px" y="0px"
	 viewBox="0 0 1417.3 1417.3" enable-background="new 0 0 1417.3 1417.3" xml:space="preserve">
<g>
	<defs>
		<rect id="SVGID_1_" x="4.7" y="58" width="1412.7" height="1310.7"/>
	</defs>
	<clipPath id="SVGID_2_">
		<use xlink:href="#SVGID_1_"  overflow="visible"/>
	</clipPath>
	<path clip-path="url(#SVGID_2_)" fill="#FEC704" d="M834.5,58C632,58,453.7,161.2,349.2,317.8c29.4-9.7,60.6-14.7,92.5-14.7
		c38,0,74.9,7.2,109.2,20.8c75.3-67.4,174.6-108.4,283.6-108.4c234.9,0,425.3,190.4,425.3,425.3s-190.4,425.3-425.3,425.3
		c-7.6,0-15.2-0.2-22.7-0.6l53.5,157.4c307.6-15.9,552.1-270.4,552.1-582C1417.3,318.9,1156.4,58,834.5,58"/>
	<path clip-path="url(#SVGID_2_)" fill="#231F20" d="M441.7,858.9c144.1,0,260.8-116.8,260.8-260.8c0-144.1-116.8-260.9-260.8-260.9
		S180.9,453.9,180.9,598C180.9,742.1,297.6,858.9,441.7,858.9"/>
	<path clip-path="url(#SVGID_2_)" fill="#231F20" d="M734.7,989.9l-179-84.1v0l-38,230H500l-24.4-167h-1.5h-64.8h-1.5v0l-24.4,167
		h-17.7l-38-230l-179,84.1c-11.7,5.5-20.7,15.6-24.9,27.8L4.7,1368.6h125.6h748.4l-119.1-350.8
		C755.4,1005.5,746.5,995.5,734.7,989.9"/>
</g>
<polygon fill="#231F20" points="391.8,886.7 412.5,942 427.2,942 456.2,942 470.8,942 491.6,886.7 456.2,886.7 427.2,886.7 "/>
<g>
	<defs>
		<rect id="SVGID_3_" x="4.7" y="58" width="1412.7" height="1310.7"/>
	</defs>
	<clipPath id="SVGID_4_">
		<use xlink:href="#SVGID_3_"  overflow="visible"/>
	</clipPath>
	<path clip-path="url(#SVGID_4_)" fill="#FEC704" d="M809.7,702.5c27.3-25.8,70.4-24.5,96.1,2.7c25.8,27.3,24.5,70.4-2.8,96.1
		c-27.3,25.8-70.3,24.5-96.1-2.8C781.2,771.3,782.4,728.2,809.7,702.5 M704.8,707.1l-2.3,80.7l33.3,1c1.6,5.3,3.6,10.6,6,15.7
		l-24.2,22.8l55.4,58.8l24.2-22.8c5,2.6,10.1,4.9,15.3,6.9l-0.9,33.3l80.7,2.3l0.9-33.3c5.4-1.6,10.6-3.6,15.8-6l22.8,24.2
		l58.7-55.5l-22.8-24.2c2.7-5,5-10.2,6.9-15.4l33.3,1l2.3-80.7l-33.3-1c-1.6-5.3-3.6-10.6-6-15.7l24.2-22.9l-55.5-58.7l-24.2,22.8
		c-5-2.6-10.2-4.9-15.4-6.9l1-33.3l-80.7-2.3l-1,33.3c-5.3,1.6-10.6,3.6-15.8,6l-22.8-24.2l-58.7,55.4l22.8,24.2
		c-2.7,5-4.9,10.1-6.9,15.4L704.8,707.1z"/>
	<path clip-path="url(#SVGID_4_)" fill="#FEC704" d="M906.7,399.5c23.5-22.2,60.4-21.1,82.6,2.4c22.1,23.4,21.1,60.4-2.4,82.5
		c-23.5,22.1-60.4,21.1-82.6-2.4C882.2,458.6,883.3,421.6,906.7,399.5 M816.6,403.5l-2,69.3l28.6,0.8c1.4,4.6,3.1,9.1,5.2,13.5
		l-20.8,19.6l47.6,50.5l20.8-19.6c4.3,2.3,8.7,4.3,13.2,5.9l-0.8,28.6l69.3,2l0.8-28.5c4.6-1.4,9.1-3.1,13.5-5.2l19.6,20.8
		l50.4-47.6l-19.6-20.8c2.3-4.3,4.3-8.7,5.9-13.2l28.6,0.8l2-69.3l-28.6-0.9c-1.4-4.6-3.1-9.1-5.1-13.5l20.8-19.6l-47.6-50.5
		l-20.8,19.6c-4.3-2.3-8.7-4.2-13.2-5.9l0.8-28.6l-69.3-2l-0.8,28.6c-4.6,1.4-9.1,3.1-13.5,5.2l-19.6-20.8l-50.4,47.6l19.6,20.8
		c-2.3,4.3-4.2,8.7-5.9,13.2L816.6,403.5z"/>
	<path clip-path="url(#SVGID_4_)" fill="#FEC704" d="M1169.6,587.2c16.3,17.3,15.5,44.6-1.7,60.9c-17.3,16.3-44.6,15.6-60.9-1.7
		c-16.3-17.3-15.6-44.6,1.7-60.9C1126,569.1,1153.3,569.9,1169.6,587.2 M1115.5,519.2l-0.6,21.1c-3.4,1-6.7,2.3-10,3.8l-14.5-15.3
		l-37.2,35.1l14.5,15.3c-1.7,3.2-3.2,6.4-4.4,9.7l-21.1-0.6l-1.4,51.2l21.1,0.6c1,3.4,2.3,6.7,3.8,10l-15.3,14.5l35.1,37.2
		l15.3-14.5c3.2,1.7,6.4,3.1,9.7,4.3l-0.6,21.1l51.2,1.5l0.6-21.1c3.4-1,6.7-2.3,10-3.8l14.5,15.3l37.2-35.1l-14.5-15.3
		c1.7-3.2,3.2-6.4,4.4-9.7l21.1,0.6l1.5-51.2l-21.1-0.6c-1-3.4-2.3-6.7-3.8-10l15.3-14.5l-35.1-37.2l-15.3,14.5
		c-3.2-1.7-6.4-3.1-9.7-4.3l0.6-21.1L1115.5,519.2z"/>
</g>
</svg>
