<?xml version="1.0" encoding="utf-8"?>
<!-- Generator: Adobe Illustrator 17.1.0, SVG Export Plug-In . SVG Version: 6.00 Build 0)  -->
<!DOCTYPE svg PUBLIC "-//W3C//DTD SVG 1.1//EN" "http://www.w3.org/Graphics/SVG/1.1/DTD/svg11.dtd">
<svg version="1.1" id="Layer_1" xmlns="http://www.w3.org/2000/svg" xmlns:xlink="http://www.w3.org/1999/xlink" x="0px" y="0px"
	 viewBox="0 0 1417.3 1417.3" enable-background="new 0 0 1417.3 1417.3" xml:space="preserve">
<g>
	<defs>
		<rect id="SVGID_1_" x="195.4" y="5.1" width="1017.6" height="1416.3"/>
	</defs>
	<clipPath id="SVGID_2_">
		<use xlink:href="#SVGID_1_"  overflow="visible"/>
	</clipPath>
	<path clip-path="url(#SVGID_2_)" fill="#FEC704" d="M512.4,856.7c2.4-4.3,5.1-8.3,8.3-12.1C404.6,780,326,656.1,326,513.9
		c0-208.9,169.3-378.2,378.2-378.2s378.2,169.3,378.2,378.2c0,104.9-42.8,199.8-111.8,268.4l101.9,24.9l10.9,15.8l2,0.5
		c6.2,1.5,12.2,3.5,18,5.9C1172,742.6,1213,633,1213,513.9c0-281-227.8-508.8-508.8-508.8S195.4,232.9,195.4,513.9
		c0,223.7,144.4,413.7,345.1,481.9l-18.6-38.5C493.9,910.6,501.2,876.8,512.4,856.7"/>
</g>
<rect x="649.5" y="1294.7" fill="#231F20" width="468.6" height="126.6"/>
<g>
	<defs>
		<rect id="SVGID_3_" x="195.4" y="5.1" width="1017.6" height="1416.3"/>
	</defs>
	<clipPath id="SVGID_4_">
		<use xlink:href="#SVGID_3_"  overflow="visible"/>
	</clipPath>
	<path clip-path="url(#SVGID_4_)" fill="#231F20" d="M1039.2,1232.7H720.5l-35.3-101.5v-2l-99.7-206.8l-0.6-0.9
		c-10-16.1-11.3-25.9-9.2-29.7c3.3-5.9,19-10.4,36.6-10.4c0.4,0,0.7,0,1,0c28.7,8,66.9,21.5,78.8,47l42.1,90.5V773.8l2.6-253.7
		l4.2-4.2c8.9-8.9,20.7-13.8,33.3-13.8c12.4,0,24.1,4.8,33,13.5l4.5,4.5l-2.8,297.1l219.5,53.8l61,88.1L1039.2,1232.7z M848.9,786.3
		l2.6-282.6L835,487.5c-16.3-16-37.8-24.8-60.6-24.8c-23.2,0-44.9,9-61.3,25.4l-15.6,15.6l-2.8,269.9v100.2
		c-21.9-15.3-49.1-24.4-73.2-31l-2-0.5l-2.1-0.1c-0.3,0-2.2-0.1-5.1-0.1c-20.2,0-56.3,4-71.1,30.8c-10.3,18.5-7,41.6,9.6,68.8
		l95.3,197.7l46.3,133.1h379.7l59.3-322.1l-78.9-114L848.9,786.3z"/>
	<path clip-path="url(#SVGID_4_)" fill="#FEC704" d="M998.7,513.9c0-162.7-131.8-294.5-294.5-294.5
		c-162.6,0-294.5,131.8-294.5,294.5c0,148.3,109.5,270.9,252.1,291.5v-32.1l1-93.5c-74.4-18.5-129.5-85.7-129.5-165.8
		c0-94.4,76.5-170.9,170.9-170.9c81.6,0,149.8,57.2,166.8,133.6l13.6,13.4l-2.4,258.5C953,694.7,998.7,609.6,998.7,513.9"/>
	<path clip-path="url(#SVGID_4_)" fill="#FEC704" d="M615.2,513.9c0,34.5,19.7,64.4,48.4,79.2l1.1-103.2l25.1-25.1
		c15-15,33.3-25.5,53.3-30.9c-11.8-5.7-24.9-9-38.9-9C655.1,424.9,615.2,464.8,615.2,513.9"/>
</g>
</svg>
