<?xml version="1.0" encoding="utf-8"?>
<!-- Generator: Adobe Illustrator 17.1.0, SVG Export Plug-In . SVG Version: 6.00 Build 0)  -->
<!DOCTYPE svg PUBLIC "-//W3C//DTD SVG 1.1//EN" "http://www.w3.org/Graphics/SVG/1.1/DTD/svg11.dtd">
<svg version="1.1" id="Layer_1" xmlns="http://www.w3.org/2000/svg" xmlns:xlink="http://www.w3.org/1999/xlink" x="0px" y="0px"
	 viewBox="0 0 50.6 51.5" enable-background="new 0 0 50.6 51.5" xml:space="preserve">
<g>
	<defs>
		<rect id="SVGID_1_" x="0" width="50.6" height="51.5"/>
	</defs>
	<clipPath id="SVGID_2_">
		<use xlink:href="#SVGID_1_"  overflow="visible"/>
	</clipPath>
	<path clip-path="url(#SVGID_2_)" fill="#231F20" d="M13.7,35.4c4.5,0,8.2-3.7,8.2-8.2S18.3,19,13.7,19s-8.2,3.7-8.2,8.2
		S9.2,35.4,13.7,35.4"/>
	<path clip-path="url(#SVGID_2_)" fill="#231F20" d="M22.9,39.6l-5.6-2.6v0l-1.2,7.2h-0.6l-0.8-5.2h0h-2h0v0l-0.8,5.2h-0.6l-1.2-7.2
		l-5.6,2.6c-0.4,0.2-0.7,0.5-0.8,0.9L0,51.5h3.9v0h23.5l-3.7-11C23.6,40,23.3,39.7,22.9,39.6"/>
</g>
<polygon fill="#231F20" points="12.2,36.3 12.8,38 13.3,38 14.2,38 14.6,38 15.3,36.3 14.2,36.3 13.3,36.3 "/>
<g>
	<defs>
		<rect id="SVGID_3_" x="0" width="50.6" height="51.5"/>
	</defs>
	<clipPath id="SVGID_4_">
		<use xlink:href="#SVGID_3_"  overflow="visible"/>
	</clipPath>
	<path clip-path="url(#SVGID_4_)" fill="#FFC700" d="M44.8,15.3c-0.7,0-1.3-0.6-1.3-1.3s0.6-1.3,1.3-1.3c0.7,0,1.3,0.6,1.3,1.3
		S45.6,15.3,44.8,15.3 M40.5,15.3c-0.7,0-1.3-0.6-1.3-1.3s0.6-1.3,1.3-1.3c0.7,0,1.3,0.6,1.3,1.3S41.2,15.3,40.5,15.3 M36.1,15.3
		c-0.7,0-1.3-0.6-1.3-1.3s0.6-1.3,1.3-1.3c0.7,0,1.3,0.6,1.3,1.3S36.8,15.3,36.1,15.3 M31.7,15.3c-0.7,0-1.3-0.6-1.3-1.3
		s0.6-1.3,1.3-1.3c0.7,0,1.3,0.6,1.3,1.3S32.4,15.3,31.7,15.3 M37.8,0c-7,0-12.7,4.8-12.7,10.8c0,2.1,0.7,4,1.9,5.7L23.6,23l7.7-2.9
		c1.9,1,4.2,1.6,6.6,1.6c7,0,12.7-4.8,12.7-10.8S44.9,0,37.8,0"/>
</g>
</svg>
