<?xml version="1.0" encoding="utf-8"?>
<!-- Generator: Adobe Illustrator 17.1.0, SVG Export Plug-In . SVG Version: 6.00 Build 0)  -->
<!DOCTYPE svg PUBLIC "-//W3C//DTD SVG 1.1//EN" "http://www.w3.org/Graphics/SVG/1.1/DTD/svg11.dtd">
<svg version="1.1" id="Layer_1" xmlns="http://www.w3.org/2000/svg" xmlns:xlink="http://www.w3.org/1999/xlink" x="0px" y="0px"
	 viewBox="0 0 1417.3 1417.3" enable-background="new 0 0 1417.3 1417.3" xml:space="preserve">
<polygon fill="#231F20" points="319.9,387.5 300.8,387.5 277.4,387.5 291.1,424 300.8,424 319.9,424 329.6,424 343.3,387.5 "/>
<g>
	<defs>
		<rect id="SVGID_1_" x="21.6" y="3.4" width="1371.4" height="1412.1"/>
	</defs>
	<clipPath id="SVGID_2_">
		<use xlink:href="#SVGID_1_"  overflow="visible"/>
	</clipPath>
	<path clip-path="url(#SVGID_2_)" fill="#231F20" d="M310.3,369.1c95.2,0,172.4-77.2,172.4-172.4c0-95.2-77.2-172.4-172.4-172.4
		S138,101.5,138,196.7C138,291.9,215.2,369.1,310.3,369.1"/>
	<path clip-path="url(#SVGID_2_)" fill="#231F20" d="M520.4,474.1c-2.7-8.1-8.7-14.8-16.5-18.4l-111.2-52.3l-7-3.3l-25.1,152h-11.7
		l-16.1-110.4h-1h-42.8h-1l-16.1,110.4h-11.7l-25.1-152l-7,3.3l-111.2,52.3c-7.8,3.6-13.7,10.3-16.5,18.4L21.6,780v0l120.4,0v556.6
		h155.8V992.8h25.1v343.9h155.8V780l120.4,0v0L520.4,474.1z"/>
	<path clip-path="url(#SVGID_2_)" fill="#FEC704" d="M1393,896.1V522.9h-153.8c-8.4-24.7-18.4-48.7-29.8-71.9l108.8-108.8
		l-263.9-264L945.5,187c-23.1-11.5-47.1-21.4-71.9-29.8V3.4H686.9v391.9c173.6,0,314.2,140.7,314.2,314.2
		c0,173.6-140.7,314.2-314.2,314.2v391.8h186.6v-153.8c24.7-8.4,48.7-18.4,71.9-29.8l108.8,108.8l263.9-264L1209.4,968
		c11.5-23.1,21.5-47.1,29.8-71.9H1393z"/>
</g>
</svg>
