<?xml version="1.0" encoding="utf-8"?>
<!-- Generator: Adobe Illustrator 17.1.0, SVG Export Plug-In . SVG Version: 6.00 Build 0)  -->
<!DOCTYPE svg PUBLIC "-//W3C//DTD SVG 1.1//EN" "http://www.w3.org/Graphics/SVG/1.1/DTD/svg11.dtd">
<svg version="1.1" id="Layer_1" xmlns="http://www.w3.org/2000/svg" xmlns:xlink="http://www.w3.org/1999/xlink" x="0px" y="0px"
	 viewBox="0 0 1417.3 1417.3" enable-background="new 0 0 1417.3 1417.3" xml:space="preserve">
<path fill="#FEC704" d="M594.8,594H825v230.2H594.8V594z M518.7,518V682H234v582.5h120.4v58.3l147.1-94.6l-147.1-94.6v58.3h-47.9
	V754.6h212.3v145.6H901V518H518.7z"/>
<path fill="#231F20" d="M594.8,1104H825v230.2H594.8V1104z M518.7,1410.2H901V1028H518.7V1410.2z"/>
<path fill="#231F20" d="M594.8,84H825v230.2H594.8V84z M518.7,8v382.3H901V235.4h206.6v437.5h-47.9v-58.3l-147.1,94.6l147.1,94.6
	v-58.3H1180V162.9H901V8H518.7z"/>
</svg>
