<?xml version="1.0" encoding="utf-8"?>
<!-- Generator: Adobe Illustrator 17.1.0, SVG Export Plug-In . SVG Version: 6.00 Build 0)  -->
<!DOCTYPE svg PUBLIC "-//W3C//DTD SVG 1.1//EN" "http://www.w3.org/Graphics/SVG/1.1/DTD/svg11.dtd">
<svg version="1.1" id="Layer_1" xmlns="http://www.w3.org/2000/svg" xmlns:xlink="http://www.w3.org/1999/xlink" x="0px" y="0px"
	 viewBox="0 0 200 200" enable-background="new 0 0 200 200" xml:space="preserve">
<g>
	<path fill="#000" d="M144.4,100.5c-0.3,11.7-4.9,22.6-13.1,30.8c-8.3,8.3-19.3,12.9-31.1,12.9c-24.4,0-44.2-19.7-44.2-43.9
		c0-24.6,20.1-44.6,44.5-43.9c13.6,0.4,25,5,32.9,13.3C140.8,77.7,144.7,88.3,144.4,100.5 M131,38.7H69.3C52.9,38.7,39,51.3,39,67.6
		v65.3c0,16.3,13.9,30,30.3,30H131c16.4,0,30-13.7,30-30V67.6C161,51.3,147.5,38.7,131,38.7"/>
	<path fill="#000" d="M99.9,77.4h-0.7c-12.5,0-22.7,10.2-22.7,23.1s10.6,23.3,23.6,23.3c13,0,23.4-10.2,23.6-23.4
		C124.1,86.1,115.4,77.4,99.9,77.4"/>
	<path fill="#000" d="M177.2,132.9c0,25.5-20.5,46.1-46.2,46.1H69.3c-25.7,0-46.5-20.6-46.5-46.1V67.6C22.8,42.1,43.6,21,69.3,21
		H131c25.7,0,46.2,21.1,46.2,46.6V132.9z M192.3,0H8c0,0-8,0.5-8,8.8v182.8c0,0-0.4,8.3,8,8.3h184.3c0,0,7.7,0.1,7.7-8.3V8.8
		C200,8.8,200.7,0,192.3,0"/>
</g>
</svg>
