<?xml version="1.0" encoding="utf-8"?>
<!-- Generator: Adobe Illustrator 17.1.0, SVG Export Plug-In . SVG Version: 6.00 Build 0)  -->
<!DOCTYPE svg PUBLIC "-//W3C//DTD SVG 1.1//EN" "http://www.w3.org/Graphics/SVG/1.1/DTD/svg11.dtd">
<svg version="1.1" id="Layer_1" xmlns="http://www.w3.org/2000/svg" xmlns:xlink="http://www.w3.org/1999/xlink" x="0px" y="0px"
	 viewBox="0 0 200 200" enable-background="new 0 0 200 200" xml:space="preserve">
<g>
	<path fill="#000" d="M75,131.1c-31,0-56.2-24.9-56.2-55.5S44,20.1,75,20.1s56.2,24.9,56.2,55.5S106,131.1,75,131.1 M150,75.6
		c0-40.9-33.6-74-75-74c-41.4,0-75,33.1-75,74s33.6,74,75,74C116.4,149.6,150,116.5,150,75.6"/>
	<path fill="#000" d="M194.5,167.3L148.6,122c-6.8,10.5-15.9,19.4-26.5,26.2l45.9,45.3c7.3,7.2,19.2,7.2,26.5,0
		C201.8,186.3,201.8,174.6,194.5,167.3"/>
</g>
</svg>
