<?xml version="1.0" encoding="utf-8"?>
<!-- Generator: Adobe Illustrator 17.1.0, SVG Export Plug-In . SVG Version: 6.00 Build 0)  -->
<!DOCTYPE svg PUBLIC "-//W3C//DTD SVG 1.1//EN" "http://www.w3.org/Graphics/SVG/1.1/DTD/svg11.dtd">
<svg version="1.1" id="Layer_1" xmlns="http://www.w3.org/2000/svg" xmlns:xlink="http://www.w3.org/1999/xlink" x="0px" y="0px"
	 viewBox="0 0 723.8 200" enable-background="new 0 0 723.8 200" xml:space="preserve">
<polygon fill="#fff" points="201.6,0 181.1,45.6 160.6,0 136.9,10.6 145.4,29.6 125.6,38.4 136,61.5 155.8,52.7 166.8,77.3
	135.8,146.3 134.8,148.5 124.6,171.3 123.9,172.9 113.5,195.8 142,195.8 147.5,183.7 148.1,182.2 158.4,159.5 159.4,157.2 
	181.1,109 202.8,157.2 203.8,159.5 214,182.2 214.7,183.7 220.1,195.8 248.6,195.8 238.4,173 237.6,171.3 227.4,148.6 226.4,146.3 
	195.3,77.3 206.4,52.7 226.1,61.5 236.5,38.4 216.8,29.6 225.4,10.6 "/>
<polygon fill="#fff" points="73.5,77.2 73.5,123.4 24.7,123.4 24.7,77.2 0,77.2 0,195.8 24.7,195.8 24.7,148 73.5,148
	73.5,195.8 98.2,195.8 98.2,77.2 "/>
<path fill="#fff" d="M317.6,71.6c-35.6,0-64.5,28.7-64.5,64.2S282,200,317.6,200c35.7,0,64.5-28.7,64.5-64.2
	S353.2,71.6,317.6,71.6 M317.6,96.2c21.9,0,39.8,17.8,39.8,39.6c0,21.8-17.8,39.6-39.8,39.6c-21.9,0-39.8-17.8-39.8-39.6
	C277.8,114,295.7,96.2,317.6,96.2"/>
<path fill="#fff" d="M181.3,162.7c-8.6,0-16.3-1.3-22.9-3.1l-10.2,22.7c9.4,3,20.5,5.1,33.2,5.1c12.3,0,23.3-2.1,32.7-5.2
	l-10.2-22.7C197.2,161.4,189.6,162.7,181.3,162.7"/>
<path fill="#fff" d="M251.2,161.4l-17.6-17.5c-1.3,1.1-3.4,2.8-6.2,4.7l10.2,22.8C244.4,167.2,249,163.4,251.2,161.4"/>
<path fill="#fff" d="M110.9,161.4l17.6-17.5c1.3,1.1,3.4,2.8,6.2,4.7l-10.2,22.8C117.8,167.2,113.2,163.4,110.9,161.4"/>
<g>
	<polygon fill="#FFFFFF" points="436.8,114 436.8,125.5 451.3,125.5 451.3,114 455,114 455,140.8 451.3,140.8 451.3,129 436.8,129
		436.8,140.8 433.1,140.8 433.1,114 	"/>
	<polygon fill="#FFFFFF" points="481.1,122.9 481.1,130.1 490,130.1 490,122.9 493.6,122.9 493.6,140.8 490,140.8 490,133.5
		481.1,133.5 481.1,140.8 477.5,140.8 477.5,122.9 	"/>
	<polygon fill="#FFFFFF" points="518.6,122.9 518.6,137.4 526.9,137.4 526.9,122.9 530.5,122.9 530.5,137.4 533.3,137.4
		533.3,145.3 530,145.3 529.9,140.8 515,140.8 515,122.9 	"/>
	<polygon fill="#FFFFFF" points="556.5,122.9 556.5,135.1 566.1,122.9 569.2,122.9 569.2,140.8 565.6,140.8 565.6,128.6 556,140.8
		552.9,140.8 552.9,122.9 	"/>
	<polygon fill="#FFFFFF" points="481.6,149 481.6,152.3 475.6,152.3 475.6,166.8 472,166.8 472,152.3 466,152.3 466,149 	"/>
	<polygon fill="#FFFFFF" points="505.8,149 505.8,156.2 514.7,156.2 514.7,149 518.3,149 518.3,166.8 514.7,166.8 514.7,159.5
		505.8,159.5 505.8,166.8 502.2,166.8 502.2,149 	"/>
	<polygon fill="#FFFFFF" points="545.3,149 550.7,162.8 556.1,149 560.8,149 560.8,166.8 557.2,166.8 557.2,154.2 552.2,166.8
		549.2,166.8 544.1,154.2 544.1,166.8 540.6,166.8 540.6,149 	"/>
	<polygon fill="#FFFFFF" points="567.6,149 567.6,156.2 576.5,156.2 576.5,149 580.1,149 580.1,166.8 576.5,166.8 576.5,159.5
		567.6,159.5 567.6,166.8 564,166.8 564,149 	"/>
	<polygon fill="#FFFFFF" points="710.2,149 710.2,166.8 713.8,166.8 713.8,152.3 723.7,152.3 723.7,149 	"/>
	<polygon fill="#FFFFFF" points="436.8,114 436.8,125.5 451.3,125.5 451.3,114 455,114 455,140.8 451.3,140.8 451.3,129 436.8,129
		436.8,140.8 433.1,140.8 433.1,114 	"/>
	<path fill="#FFFFFF" d="M461.8,133.1c0.3,1.4,0.8,2.5,1.7,3.4s2.1,1.3,3.6,1.3c2.1,0,3.7-0.8,4.8-2.4l3.2,1.4
		c-1.8,2.9-4.4,4.4-8,4.4c-1.3,0-2.5-0.2-3.6-0.7c-1.1-0.4-2-1.1-2.8-1.9c-0.8-0.8-1.4-1.8-1.8-2.9c-0.4-1.1-0.6-2.4-0.6-3.8
		s0.2-2.6,0.6-3.8c0.4-1.1,1-2.1,1.8-2.9c0.8-0.8,1.7-1.5,2.8-1.9c1.1-0.4,2.3-0.7,3.6-0.7c1.3,0,2.4,0.2,3.4,0.7
		c1,0.4,1.9,1,2.6,1.8c0.7,0.8,1.2,1.7,1.6,2.8c0.4,1.1,0.6,2.2,0.6,3.5v1.9H461.8z M466.9,125.9c-1.4,0-2.4,0.4-3.3,1.1
		c-0.8,0.8-1.4,1.8-1.7,3h9.7c-0.1-1.4-0.6-2.4-1.5-3.1C469.3,126.2,468.2,125.9,466.9,125.9"/>
	<polygon fill="#FFFFFF" points="481.1,122.9 481.1,130.1 490,130.1 490,122.9 493.6,122.9 493.6,140.8 490,140.8 490,133.5
		481.1,133.5 481.1,140.8 477.5,140.8 477.5,122.9 	"/>
	<path fill="#FFFFFF" d="M499.3,133.1c0.3,1.4,0.8,2.5,1.7,3.4s2.1,1.3,3.6,1.3c2.1,0,3.7-0.8,4.8-2.4l3.2,1.4
		c-1.8,2.9-4.4,4.4-8,4.4c-1.3,0-2.5-0.2-3.6-0.7c-1.1-0.4-2-1.1-2.8-1.9c-0.8-0.8-1.4-1.8-1.8-2.9c-0.4-1.1-0.6-2.4-0.6-3.8
		s0.2-2.6,0.6-3.8c0.4-1.1,1-2.1,1.8-2.9c0.8-0.8,1.7-1.5,2.8-1.9c1.1-0.4,2.3-0.7,3.6-0.7c1.3,0,2.4,0.2,3.4,0.7
		c1,0.4,1.9,1,2.6,1.8c0.7,0.8,1.2,1.7,1.6,2.8c0.4,1.1,0.6,2.2,0.6,3.5v1.9H499.3z M504.4,125.9c-1.4,0-2.4,0.4-3.3,1.1
		c-0.9,0.8-1.4,1.8-1.7,3h9.7c-0.1-1.4-0.6-2.4-1.5-3.1C506.8,126.2,505.7,125.9,504.4,125.9"/>
	<polygon fill="#FFFFFF" points="518.6,122.9 518.6,137.4 526.9,137.4 526.9,122.9 530.5,122.9 530.5,137.4 533.3,137.4
		533.3,145.3 530,145.3 529.9,140.8 515,140.8 515,122.9 	"/>
	<path fill="#FFFFFF" d="M538.3,122.9v7.1h3.1c0.7,0,1.3-0.2,1.9-0.7c0.5-0.5,0.9-1.2,1-2.2c0.1-1.4,0.6-2.5,1.3-3.3
		c0.8-0.7,1.8-1.1,3.2-1.1c0.3,0,0.6,0,0.9,0.1c0.3,0,0.6,0.1,0.9,0.1l-0.1,3.2h-0.8c-1.3,0-2,0.8-2.1,2.2c-0.1,0.7-0.3,1.4-0.6,1.9
		c-0.4,0.6-0.8,1-1.4,1.2c0.7,0.3,1.2,0.7,1.7,1.3c0.4,0.6,0.7,1.3,0.8,2.2c0.1,1,0.4,1.7,0.8,2.1c0.4,0.4,0.9,0.6,1.5,0.6h0.5
		l0.1,3.2c-0.3,0.1-0.5,0.1-0.8,0.1c-0.3,0-0.6,0-0.9,0c-2.6,0-4.1-1.5-4.5-4.5c-0.1-1.1-0.5-1.8-1-2.3c-0.5-0.5-1.3-0.7-2.3-0.7
		h-3.1v7.4h-3.6v-17.8H538.3z"/>
	<polygon fill="#FFFFFF" points="556.5,122.9 556.5,135.1 566.1,122.9 569.2,122.9 569.2,140.8 565.6,140.8 565.6,128.6 556,140.8
		552.9,140.8 552.9,122.9 	"/>
	<path fill="#FFFFFF" d="M576.1,122.9v12.1l9.6-12.1h3.2v17.8h-3.6v-12.2l-9.6,12.2h-3.2v-17.8H576.1z M578.3,114v0.4
		c0,0.8,0.2,1.4,0.6,1.9c0.4,0.5,1,0.7,1.7,0.7c0.7,0,1.3-0.2,1.7-0.7c0.4-0.5,0.6-1.1,0.6-1.9V114h3.4v0.6c0,0.8-0.1,1.5-0.4,2.2
		c-0.2,0.7-0.6,1.3-1.1,1.8c-0.5,0.5-1.1,0.9-1.8,1.2c-0.7,0.3-1.5,0.4-2.5,0.4c-0.9,0-1.8-0.1-2.5-0.4c-0.7-0.3-1.3-0.7-1.8-1.2
		c-0.5-0.5-0.8-1.1-1.1-1.8c-0.2-0.7-0.4-1.4-0.4-2.2V114H578.3z"/>
	<path fill="#FFFFFF" d="M431.4,154.2c0.2-0.8,0.4-1.6,0.9-2.2c0.4-0.7,0.9-1.3,1.6-1.8c0.6-0.5,1.4-0.9,2.3-1.2
		c0.9-0.3,1.9-0.4,3-0.4c2.5,0,4.4,0.6,5.5,1.7c1.1,1.1,1.7,2.7,1.7,4.6v6.8c0,0.8,0.1,1.3,0.4,1.6c0.3,0.3,0.7,0.4,1.2,0.4h0.9
		l0.1,3.1c-0.7,0.2-1.4,0.3-2.1,0.3c-1,0-1.7-0.3-2.2-0.8c-0.5-0.5-0.8-1.3-0.9-2.2c-0.8,1-1.8,1.8-2.9,2.3c-1.1,0.5-2.5,0.8-4,0.8
		c-1.9,0-3.4-0.5-4.5-1.5c-1-1-1.6-2.3-1.6-4c0-0.8,0.1-1.5,0.4-2.2c0.3-0.7,0.7-1.3,1.3-1.8c0.6-0.5,1.4-0.9,2.4-1.2
		c1-0.3,2.2-0.5,3.6-0.5c1.6,0,2.8-0.2,3.4-0.5c0.6-0.3,0.9-0.8,0.9-1.4c0-0.7-0.3-1.2-0.9-1.7c-0.6-0.4-1.5-0.6-2.8-0.6
		c-1.3,0-2.2,0.2-2.9,0.7c-0.6,0.4-1,1-1.2,1.7L431.4,154.2z M443,158c-0.5,0.3-1.1,0.6-1.9,0.8c-0.8,0.2-1.7,0.3-2.9,0.3
		c-1.4,0.1-2.4,0.3-3,0.8c-0.5,0.4-0.8,1-0.8,1.8c0,0.7,0.2,1.2,0.7,1.6c0.5,0.4,1.3,0.6,2.5,0.6c1.7,0,3-0.4,3.9-1.2
		c0.9-0.8,1.4-1.9,1.4-3.4V158z"/>
	<path fill="#FFFFFF" d="M459.2,149c1,0,1.9,0.1,2.6,0.4c0.7,0.3,1.3,0.6,1.8,1.1c0.5,0.5,0.8,1,1.1,1.6c0.2,0.6,0.3,1.2,0.3,1.9
		c0,0.8-0.2,1.5-0.5,2.2c-0.3,0.7-0.8,1.2-1.4,1.5c0.8,0.3,1.5,0.8,1.9,1.5c0.4,0.7,0.7,1.5,0.7,2.5c0,1.6-0.5,2.9-1.6,3.8
		c-1.1,0.9-2.7,1.4-4.9,1.4h-8.8V149H459.2z M454,156.2h5c0.8,0,1.4-0.2,1.8-0.5c0.4-0.4,0.6-0.9,0.6-1.5c0-0.6-0.2-1.1-0.6-1.5
		c-0.4-0.4-1-0.6-1.8-0.6h-5V156.2z M454,163.6h5.5c0.9,0,1.5-0.2,2-0.6c0.4-0.4,0.7-0.9,0.7-1.6s-0.2-1.2-0.6-1.6
		c-0.4-0.4-1.1-0.6-2-0.6H454V163.6z"/>
	<polygon fill="#FFFFFF" points="481.6,149 481.6,152.3 475.6,152.3 475.6,166.8 472,166.8 472,152.3 466,152.3 466,149 	"/>
	<path fill="#FFFFFF" d="M491.1,148.6c1.4,0,2.7,0.2,3.8,0.7c1.1,0.5,2.1,1.1,2.9,2c0.8,0.8,1.4,1.8,1.8,2.9
		c0.4,1.1,0.6,2.3,0.6,3.7c0,1.3-0.2,2.5-0.6,3.6c-0.4,1.1-1,2.1-1.8,3c-0.8,0.8-1.7,1.5-2.9,2c-1.1,0.5-2.4,0.7-3.8,0.7
		c-1.4,0-2.7-0.2-3.8-0.7c-1.1-0.5-2.1-1.1-2.9-2c-0.8-0.8-1.4-1.8-1.8-2.9c-0.4-1.1-0.6-2.3-0.6-3.7c0-1.3,0.2-2.5,0.6-3.6
		c0.4-1.1,1-2.1,1.8-3c0.8-0.8,1.7-1.5,2.9-2C488.4,148.8,489.7,148.6,491.1,148.6 M491.1,151.9c-0.9,0-1.6,0.2-2.3,0.4
		c-0.7,0.3-1.3,0.7-1.7,1.2c-0.5,0.5-0.9,1.2-1.1,1.9c-0.3,0.7-0.4,1.6-0.4,2.4c0,0.9,0.1,1.7,0.4,2.4c0.3,0.7,0.6,1.4,1.1,1.9
		c0.5,0.5,1.1,0.9,1.7,1.3c0.7,0.3,1.5,0.4,2.3,0.4c0.9,0,1.6-0.1,2.3-0.4c0.7-0.3,1.3-0.7,1.8-1.2c0.5-0.5,0.8-1.2,1.1-1.9
		c0.3-0.7,0.4-1.6,0.4-2.4c0-0.9-0.1-1.6-0.4-2.4c-0.3-0.7-0.6-1.4-1.1-1.9c-0.5-0.5-1.1-0.9-1.8-1.2
		C492.7,152,491.9,151.9,491.1,151.9"/>
	<polygon fill="#FFFFFF" points="505.8,149 505.8,156.2 514.7,156.2 514.7,149 518.3,149 518.3,166.8 514.7,166.8 514.7,159.5
		505.8,159.5 505.8,166.8 502.2,166.8 502.2,149 	"/>
	<path fill="#FFFFFF" d="M529.5,148.6c1.4,0,2.7,0.2,3.8,0.7c1.1,0.5,2.1,1.1,2.9,2c0.8,0.8,1.4,1.8,1.8,2.9
		c0.4,1.1,0.6,2.3,0.6,3.7c0,1.3-0.2,2.5-0.6,3.6c-0.4,1.1-1,2.1-1.8,3c-0.8,0.8-1.7,1.5-2.9,2c-1.1,0.5-2.4,0.7-3.8,0.7
		c-1.4,0-2.7-0.2-3.8-0.7c-1.1-0.5-2.1-1.1-2.9-2s-1.4-1.8-1.8-2.9c-0.4-1.1-0.6-2.3-0.6-3.7c0-1.3,0.2-2.5,0.6-3.6s1-2.1,1.8-3
		c0.8-0.8,1.7-1.5,2.9-2C526.8,148.8,528.1,148.6,529.5,148.6 M529.5,151.9c-0.9,0-1.6,0.2-2.3,0.4c-0.7,0.3-1.3,0.7-1.7,1.2
		c-0.5,0.5-0.9,1.2-1.1,1.9c-0.3,0.7-0.4,1.6-0.4,2.4c0,0.9,0.1,1.7,0.4,2.4c0.3,0.7,0.6,1.4,1.1,1.9c0.5,0.5,1.1,0.9,1.7,1.3
		c0.7,0.3,1.5,0.4,2.3,0.4c0.9,0,1.6-0.1,2.3-0.4c0.7-0.3,1.3-0.7,1.7-1.2c0.5-0.5,0.9-1.2,1.1-1.9c0.3-0.7,0.4-1.6,0.4-2.4
		c0-0.9-0.1-1.6-0.4-2.4c-0.3-0.7-0.6-1.4-1.1-1.9c-0.5-0.5-1.1-0.9-1.7-1.2C531.1,152,530.3,151.9,529.5,151.9"/>
	<polygon fill="#FFFFFF" points="545.3,149 550.7,162.8 556.1,149 560.8,149 560.8,166.8 557.2,166.8 557.2,154.2 552.2,166.8
		549.2,166.8 544.1,154.2 544.1,166.8 540.6,166.8 540.6,149 	"/>
	<polygon fill="#FFFFFF" points="567.6,149 567.6,156.2 576.5,156.2 576.5,149 580.1,149 580.1,166.8 576.5,166.8 576.5,159.5
		567.6,159.5 567.6,166.8 564,166.8 564,149 	"/>
	<path fill="#FFFFFF" d="M587,149v5.3h3.5c2.1,0,3.8,0.5,5,1.6c1.2,1.1,1.9,2.6,1.9,4.6c0,1-0.2,1.9-0.5,2.6c-0.3,0.8-0.8,1.4-1.4,2
		c-0.6,0.5-1.3,0.9-2.2,1.2c-0.9,0.3-1.8,0.4-2.8,0.4h-7.1V149H587z M587,163.5h3.3c1.3,0,2.2-0.3,2.8-0.8c0.5-0.5,0.8-1.2,0.8-2.1
		c0-2-1.2-2.9-3.6-2.9H587V163.5z M603.4,166.8h-3.6V149h3.6V166.8z"/>
	<path fill="#FFFFFF" d="M610.3,149v12.1l9.6-12.1h3.2v17.8h-3.6v-12.2l-9.6,12.2h-3.2V149H610.3z M612.5,140v0.4
		c0,0.8,0.2,1.4,0.6,1.9c0.4,0.5,1,0.7,1.7,0.7c0.7,0,1.3-0.2,1.7-0.7c0.4-0.5,0.6-1.1,0.6-1.9V140h3.4v0.6c0,0.8-0.1,1.5-0.4,2.2
		c-0.2,0.7-0.6,1.3-1.1,1.8c-0.5,0.5-1.1,0.9-1.8,1.2s-1.5,0.4-2.5,0.4c-0.9,0-1.8-0.1-2.5-0.4c-0.7-0.3-1.3-0.7-1.8-1.2
		c-0.5-0.5-0.8-1.1-1.1-1.8c-0.2-0.7-0.4-1.4-0.4-2.2V140H612.5z"/>
	<path fill="#FFFFFF" d="M642.4,148.6c1.4,0,2.7,0.2,3.8,0.7c1.1,0.5,2.1,1.1,2.9,2c0.8,0.8,1.4,1.8,1.8,2.9
		c0.4,1.1,0.6,2.3,0.6,3.7c0,1.3-0.2,2.5-0.6,3.6c-0.4,1.1-1,2.1-1.8,3c-0.8,0.8-1.7,1.5-2.9,2c-1.1,0.5-2.4,0.7-3.8,0.7
		c-1.4,0-2.7-0.2-3.8-0.7c-1.1-0.5-2.1-1.1-2.9-2s-1.4-1.8-1.8-2.9c-0.4-1.1-0.6-2.3-0.6-3.7c0-1.3,0.2-2.5,0.6-3.6
		c0.4-1.1,1-2.1,1.8-3c0.8-0.8,1.7-1.5,2.9-2C639.7,148.8,641,148.6,642.4,148.6 M642.4,151.9c-0.9,0-1.6,0.2-2.3,0.4
		c-0.7,0.3-1.3,0.7-1.7,1.2c-0.5,0.5-0.9,1.2-1.1,1.9c-0.3,0.7-0.4,1.6-0.4,2.4c0,0.9,0.1,1.7,0.4,2.4c0.3,0.7,0.6,1.4,1.1,1.9
		c0.5,0.5,1.1,0.9,1.7,1.3c0.7,0.3,1.5,0.4,2.3,0.4c0.9,0,1.6-0.1,2.3-0.4c0.7-0.3,1.3-0.7,1.7-1.2c0.5-0.5,0.9-1.2,1.1-1.9
		c0.3-0.7,0.4-1.6,0.4-2.4c0-0.9-0.1-1.6-0.4-2.4c-0.3-0.7-0.6-1.4-1.1-1.9c-0.5-0.5-1.1-0.9-1.7-1.2
		C644,152,643.3,151.9,642.4,151.9"/>
	<path fill="#FFFFFF" d="M657.1,149v7.1h3.1c0.7,0,1.3-0.2,1.9-0.7c0.5-0.5,0.9-1.2,1-2.2c0.1-1.4,0.6-2.5,1.3-3.3
		c0.8-0.7,1.8-1.1,3.2-1.1c0.3,0,0.6,0,0.9,0.1c0.3,0,0.6,0.1,0.9,0.1l-0.1,3.2h-0.8c-1.3,0-2,0.8-2.1,2.2c-0.1,0.7-0.3,1.4-0.6,1.9
		c-0.4,0.6-0.8,1-1.4,1.2c0.7,0.3,1.2,0.7,1.7,1.3c0.4,0.6,0.7,1.3,0.8,2.2c0.1,1,0.4,1.7,0.8,2.1c0.4,0.4,0.9,0.6,1.5,0.6h0.5
		l0.1,3.2c-0.3,0.1-0.5,0.1-0.8,0.1c-0.3,0-0.6,0-0.9,0c-2.6,0-4.1-1.5-4.5-4.5c-0.1-1.1-0.5-1.8-1-2.3c-0.5-0.5-1.3-0.7-2.3-0.7
		h-3.1v7.4h-3.6V149H657.1z"/>
	<path fill="#FFFFFF" d="M675.2,149v2.4c0.7-0.9,1.6-1.6,2.6-2s2.2-0.7,3.4-0.7c1.3,0,2.5,0.2,3.6,0.7c1.1,0.4,2,1.1,2.7,1.9
		c0.8,0.8,1.3,1.8,1.7,2.9c0.4,1.1,0.6,2.4,0.6,3.8c0,1.4-0.2,2.6-0.7,3.7c-0.4,1.1-1,2.1-1.8,2.9c-0.8,0.8-1.7,1.5-2.8,1.9
		c-1.1,0.5-2.2,0.7-3.5,0.7c-2.6,0-4.5-0.7-5.8-2.1v10.7h-3.6V149H675.2z M675.3,157.9c0,1.9,0.5,3.4,1.5,4.4s2.3,1.6,4,1.6
		c1.7,0,3.1-0.5,4.1-1.6c1-1.1,1.5-2.5,1.5-4.4c0-1.9-0.5-3.4-1.5-4.4c-1-1.1-2.3-1.6-4.1-1.6c-0.9,0-1.6,0.2-2.3,0.4
		c-0.7,0.3-1.3,0.7-1.7,1.2c-0.5,0.5-0.8,1.2-1.1,1.9C675.4,156.2,675.3,157,675.3,157.9"/>
	<path fill="#FFFFFF" d="M693.7,149l6,13.7l5-13.7h4.2l-8.7,22c-0.6,1.5-1.4,2.6-2.3,3.2c-0.9,0.7-2.1,1-3.4,1c-0.6,0-1.3,0-1.9-0.1
		l0.2-3.6c0.2,0,0.5,0,0.7,0.1c0.2,0,0.5,0,0.7,0c0.7,0,1.4-0.2,2-0.7c0.6-0.5,1-1.2,1.4-2.2l0.5-1.6l-8.5-18.1H693.7z"/>
	<polygon fill="#FFFFFF" points="710.2,149 710.2,166.8 713.8,166.8 713.8,152.3 723.7,152.3 723.7,149 	"/>
	<polygon fill="#FFFFFF" points="454.5,95.6 451.9,98.2 449.3,95.6 446.6,98.2 449.3,100.8 446.6,103.4 444,100.8 441.4,103.4
		438.8,100.8 441.4,98.2 438.8,95.6 436.2,98.2 433.6,95.6 430.9,98.2 441.4,108.6 444,111.2 457.1,98.2 	"/>
</g>
</svg>
