<?xml version="1.0" encoding="utf-8"?>
<!-- Generator: Adobe Illustrator 17.1.0, SVG Export Plug-In . SVG Version: 6.00 Build 0)  -->
<!DOCTYPE svg PUBLIC "-//W3C//DTD SVG 1.1//EN" "http://www.w3.org/Graphics/SVG/1.1/DTD/svg11.dtd">
<svg version="1.1" id="Layer_1" xmlns="http://www.w3.org/2000/svg" xmlns:xlink="http://www.w3.org/1999/xlink" x="0px" y="0px"
	 viewBox="0 0 200 200" enable-background="new 0 0 200 200" xml:space="preserve">
<path fill="#FFFFFF" d="M177,150h-18.4c-6.9,0-9.1-5.5-21.6-17.9c-10.9-10.5-15.4-11.8-18-11.8c-3.7,0-4.5,1-4.5,6.3v16.6
	c0,4.5-1.7,7.2-13.5,7.2c-19.4,0-41.2-11.8-56.3-33.7C21.8,84.5,15.5,60.1,15.5,55.3c0-2.7,0.8-5.3,6.2-5.3h18.6
	c4.6,0,6.4,2.1,8.2,7.3c9.1,26.2,24.2,49.2,30.5,49.2c2.3,0,3.4-1,3.4-6.9V72.6c0-12.5-7.3-13.7-7.3-18.1c0-2.2,1.8-4.4,4.7-4.4
	h28.8c3.9,0,6,2.4,6,7.1v36.5c0,3.9,1.3,5.4,2.5,5.4c2.3,0,4.1-1.4,8.4-5.7C138.6,78.5,148,55.4,148,55.4c1.3-2.7,3.3-5.4,8-5.4
	h18.3c5.5,0,6.8,3.1,5.5,7c-2.3,10.7-24.8,42.6-24.6,42.6c-1.9,3.2-2.7,4.7,0,8.2c2,2.7,8.4,8.2,12.7,13.2
	c7.8,8.9,13.9,16.2,15.5,21.3C184.8,147.5,182.3,150,177,150 M191.1,0H8.2C8.2,0,0,0.6,0,8.9v182.9c0,0-0.2,8.2,8.2,8.2h182.9
	c0,0,8.9,0.2,8.9-8.2V8.9C200,8.9,199.4,0,191.1,0"/>
</svg>
